<svg width="156" height="159" xmlns="http://www.w3.org/2000/svg" xmlns:xlink="http://www.w3.org/1999/xlink" overflow="hidden"><defs><clipPath id="clip0"><path d="M436 245 592 245 592 404 436 404Z" fill-rule="evenodd" clip-rule="evenodd"/></clipPath></defs><g clip-path="url(#clip0)" transform="translate(-436 -245)"><path d="M0 0 0.000104987 54.4252" stroke="#D9D9D9" stroke-linecap="square" stroke-miterlimit="8" fill="none" fill-rule="evenodd" transform="matrix(1 0 0 -1 513.5 316.925)"/><path d="M0 0 0.000104987 54.4252" stroke="#D9D9D9" stroke-linecap="square" stroke-miterlimit="8" fill="none" fill-rule="evenodd" transform="matrix(0.309017 0.951057 0.951057 -0.309017 513.246 316.253)"/><path d="M0 0 0.000104987 54.4252" stroke="#D9D9D9" stroke-linecap="square" stroke-miterlimit="8" fill="none" fill-rule="evenodd" transform="matrix(-0.809017 0.587785 0.587785 0.809017 513.108 316.366)"/><path d="M513.177 316.368 481.187 360.399" stroke="#D9D9D9" stroke-linecap="square" stroke-miterlimit="8" fill="none" fill-rule="evenodd"/><path d="M513.1 316.435 461.339 299.617" stroke="#D9D9D9" stroke-linecap="square" stroke-miterlimit="8" fill="none" fill-rule="evenodd"/><path d="M461.5 299.315 513.5 261.5 565.5 299.315 545.638 360.5 481.362 360.5Z" stroke="#D9D9D9" stroke-miterlimit="8" fill="none" fill-rule="evenodd"/><path d="M474.5 304.384 513.5 276.5 552.5 304.384 537.603 349.5 489.397 349.5Z" stroke="#D9D9D9" stroke-miterlimit="8" fill="none" fill-rule="evenodd"/><path d="M487.5 307.598 513.5 288.5 539.5 307.598 529.569 338.5 497.431 338.5Z" stroke="#D9D9D9" stroke-miterlimit="8" fill="none" fill-rule="evenodd"/><path d="M498.5 311.577 513.5 300.5 528.5 311.577 522.771 329.5 504.23 329.5Z" stroke="#D9D9D9" stroke-miterlimit="8" fill="none" fill-rule="evenodd"/><path d="M489.5 349.5 529.5 338.912 527.981 312.189 513.298 289.5 498.108 311.685 489.5 349.5Z" stroke="#00B0FF" stroke-linecap="round" stroke-miterlimit="8" fill="#00B0FF" fill-rule="evenodd" fill-opacity="0.180392"/><text fill="#595959" font-family="SpoqaHanSans,SpoqaHanSans_MSFontService,sans-serif" font-weight="400" font-size="11" transform="translate(468.437 371)">We<tspan x="15.1667" y="0">b</tspan><tspan x="72.586" y="0">Re</tspan><tspan x="85.2527" y="0">v</tspan><tspan x="34.7457" y="-113">Pw</tspan><tspan x="49.9124" y="-113">n</tspan><tspan x="98.9853" y="-69">Crp</tspan><tspan x="-25.2755" y="-70">Fo</tspan><tspan x="-12.9422" y="-70">r</tspan><tspan fill="#262626" x="7.65521" y="23">▲</tspan><tspan fill="#262626" x="20.6552" y="23">My Progress</tspan></text></g></svg>