<svg width="84" height="87" xmlns="http://www.w3.org/2000/svg" xmlns:xlink="http://www.w3.org/1999/xlink" overflow="hidden"><defs><clipPath id="clip0"><path d="M544 157 628 157 628 244 544 244Z" fill-rule="evenodd" clip-rule="evenodd"/></clipPath></defs><g clip-path="url(#clip0)" transform="translate(-544 -157)"><path d="M578.961 203.628C578.961 203.628 577.032 204.8 580.302 205.135 584.237 205.636 586.334 205.553 590.69 204.717 591.566 205.252 592.492 205.701 593.455 206.056 583.654 210.241 571.251 205.806 578.959 203.628ZM577.706 198.189C577.706 198.189 575.612 199.779 578.879 200.116 583.152 200.534 586.503 200.617 592.286 199.447 592.849 200.017 593.537 200.446 594.297 200.701 582.483 204.216 569.245 201.036 577.706 198.191ZM600.831 207.727C600.831 207.727 602.255 208.899 599.239 209.82 593.626 211.495 575.696 211.997 570.669 209.82 568.91 209.068 572.261 207.979 573.335 207.812 574.425 207.561 575.013 207.561 575.013 207.561 573.084 206.222 562.194 210.322 569.484 211.492 589.508 214.756 606.013 210.07 600.818 207.727ZM579.867 192.498C579.867 192.498 570.735 194.675 576.599 195.426 579.113 195.761 584.056 195.677 588.664 195.343 592.434 195.008 596.207 194.341 596.207 194.341 596.207 194.341 594.866 194.927 593.944 195.512 584.645 197.94 566.797 196.852 571.909 194.341 576.265 192.249 579.869 192.501 579.869 192.501ZM596.207 201.619C605.59 196.764 601.234 192.081 598.217 192.665 597.464 192.833 597.127 193 597.127 193 597.127 193 597.378 192.499 597.964 192.332 603.914 190.239 608.605 198.607 596.036 201.87 596.036 201.87 596.119 201.787 596.204 201.619ZM580.792 214.841C589.84 215.427 603.666 214.506 604 210.236 604 210.236 603.33 211.912 596.544 213.165 588.835 214.587 579.284 214.418 573.67 213.5 573.67 213.5 574.843 214.503 580.792 214.839Z" fill="#262626" fill-rule="evenodd"/><path d="M590.653 164C590.653 164 595.888 169.4 585.672 177.543 577.482 184.142 583.815 187.914 585.672 192.2 580.859 187.829 577.398 183.971 579.762 180.372 583.223 175.056 592.764 172.501 590.653 164ZM587.966 188.6C590.416 191.428 587.292 194 587.292 194 587.292 194 593.539 190.744 590.668 186.714 588.052 182.857 586.023 180.971 597 174.543 597 174.543 579.693 178.914 587.966 188.6Z" fill="#00B0FF" fill-rule="evenodd"/><rect x="546.5" y="159.5" width="80" height="80" stroke="#A6A6A6" stroke-miterlimit="8" fill="none"/><text fill="#262626" font-family="SpoqaHanSans,SpoqaHanSans_MSFontService,sans-serif" font-weight="400" font-size="16" transform="translate(568.802 229)">Java</text></g></svg>