<svg width="83" height="87" xmlns="http://www.w3.org/2000/svg" xmlns:xlink="http://www.w3.org/1999/xlink" overflow="hidden"><defs><clipPath id="clip0"><path d="M457 157 540 157 540 244 457 244Z" fill-rule="evenodd" clip-rule="evenodd"/></clipPath></defs><g clip-path="url(#clip0)" transform="translate(-457 -157)"><rect x="458.5" y="159.5" width="81" height="80" stroke="#A6A6A6" stroke-miterlimit="8" fill="none"/><text fill="#262626" font-family="SpoqaHanSans,SpoqaHanSans_MSFontService,sans-serif" font-weight="400" font-size="16" transform="translate(477.027 229)">C / C#</text><path d="M499.348 171.003C505.538 171.116 511.806 174.158 515.999 180.968L507.418 185.981C502.238 177.332 489.376 180.424 488.914 190.982 489.053 200.712 501.695 205.232 507.419 195.983L516 200.995C506.144 218.265 479.497 212.052 479 190.982 478.927 178.767 489.03 170.816 499.348 171.003Z" fill="#262626" fill-rule="evenodd"/><path d="M514.152 193.143 515.88 193.143 515.577 196 513.841 196ZM510.5 193.143 512.229 193.143 511.926 196 510.19 196ZM516.05 191.533 517.523 191.533 517.523 193.143 515.88 193.143ZM512.399 191.533 514.327 191.533 514.152 193.143 512.229 193.143ZM509 191.533 510.676 191.533 510.5 193.143 509 193.143ZM514.578 189.222 516.295 189.222 516.05 191.533 514.327 191.533ZM510.927 189.222 512.644 189.222 512.399 191.533 510.676 191.533ZM516.466 187.612 518 187.612 518 189.222 516.295 189.222ZM512.814 187.612 514.753 187.612 514.578 189.222 512.644 189.222ZM509.477 187.612 511.102 187.612 510.927 189.222 509.477 189.222ZM515.038 185 516.742 185 516.466 187.612 514.753 187.612ZM511.386 185 513.091 185 512.814 187.612 511.102 187.612Z" fill="#00B0FF" fill-rule="evenodd"/></g></svg>