<svg width="83" height="86" xmlns="http://www.w3.org/2000/svg" xmlns:xlink="http://www.w3.org/1999/xlink" overflow="hidden"><defs><clipPath id="clip0"><path d="M284 158 367 158 367 244 284 244Z" fill-rule="evenodd" clip-rule="evenodd"/></clipPath></defs><g clip-path="url(#clip0)" transform="translate(-284 -158)"><rect x="285.5" y="159.5" width="81" height="81" stroke="#A6A6A6" stroke-miterlimit="8" fill="none"/><path d="M325.09 169C313.793 169 314.498 173.888 314.498 173.888L314.511 178.952 325.291 178.952 325.291 180.473 310.229 180.473C310.229 180.473 303 179.655 303 191.028 303 202.402 309.31 201.998 309.31 201.998L313.075 201.998 313.075 196.721C313.075 196.721 312.872 190.425 319.284 190.425 325.696 190.425 329.976 190.425 329.976 190.425 329.976 190.425 335.984 190.522 335.984 184.632 335.984 178.742 335.984 174.893 335.984 174.893 335.984 174.893 336.896 169 325.09 169ZM319.146 172.405C320.218 172.405 321.085 173.27 321.085 174.341 321.085 175.411 320.218 176.276 319.146 176.276 318.073 176.276 317.206 175.411 317.206 174.341 317.206 173.27 318.073 172.405 319.146 172.405Z" fill="#00B0FF" fill-rule="evenodd"/><path d="M325.91 214C337.207 214 336.501 208.964 336.501 208.964L336.489 203.746 325.709 203.746 325.709 202.18 340.771 202.18C340.771 202.18 348 203.022 348 191.304 348 179.586 341.69 180.002 341.69 180.002L337.925 180.002 337.925 185.439C337.925 185.439 338.128 191.926 331.716 191.926 325.304 191.926 321.024 191.926 321.024 191.926 321.024 191.926 315.016 191.826 315.016 197.894 315.016 203.962 315.016 207.928 315.016 207.928 315.016 207.928 314.104 214 325.91 214ZM331.854 210.491C330.782 210.491 329.915 209.6 329.915 208.498 329.915 207.395 330.782 206.504 331.854 206.504 332.927 206.504 333.794 207.395 333.794 208.498 333.794 209.6 332.927 210.491 331.854 210.491Z" fill="#262626" fill-rule="evenodd"/><text fill="#262626" font-family="SpoqaHanSans,SpoqaHanSans_MSFontService,sans-serif" font-weight="400" font-size="16" transform="translate(298.77 230)">Python</text></g></svg>