<svg width="84" height="87" xmlns="http://www.w3.org/2000/svg" xmlns:xlink="http://www.w3.org/1999/xlink" overflow="hidden"><defs><clipPath id="clip0"><path d="M657 157 741 157 741 244 657 244Z" fill-rule="evenodd" clip-rule="evenodd"/></clipPath></defs><g clip-path="url(#clip0)" transform="translate(-657 -157)"><rect x="659.5" y="159.5" width="80" height="80" stroke="#A6A6A6" stroke-miterlimit="8" fill="none"/><text fill="#262626" font-family="SpoqaHanSans,SpoqaHanSans_MSFontService,sans-serif" font-weight="400" font-size="16" transform="translate(678.131 229)">React</text><path d="M725 189.505C725 186.009 720.686 182.696 714.072 180.641 715.598 173.799 714.92 168.356 711.931 166.613 711.242 166.204 710.437 166.011 709.557 166.011L709.557 168.41C710.044 168.41 710.437 168.507 710.765 168.689 712.207 169.529 712.832 172.724 712.344 176.833 712.228 177.844 712.037 178.909 711.804 179.996 709.726 179.479 707.458 179.081 705.073 178.823 703.643 176.833 702.159 175.026 700.664 173.444 704.119 170.185 707.363 168.399 709.568 168.399L709.568 166C709.568 166 709.568 166 709.568 166 706.653 166 702.837 168.108 698.979 171.766 695.121 168.13 691.305 166.043 688.39 166.043L688.39 168.442C690.584 168.442 693.838 170.217 697.294 173.455 695.81 175.036 694.326 176.833 692.916 178.823 690.521 179.081 688.252 179.479 686.175 180.006 685.931 178.931 685.751 177.887 685.624 176.887 685.126 172.777 685.74 169.582 687.171 168.732 687.489 168.539 687.903 168.453 688.39 168.453L688.39 166.054C688.39 166.054 688.39 166.054 688.39 166.054 687.5 166.054 686.694 166.247 685.995 166.656 683.016 168.399 682.349 173.832 683.885 180.652 677.293 182.717 673 186.02 673 189.505 673 193.002 677.314 196.315 683.928 198.37 682.402 205.212 683.08 210.655 686.069 212.398 686.758 212.806 687.563 213 688.454 213 691.369 213 695.184 210.892 699.042 207.234 702.901 210.87 706.716 212.957 709.631 212.957 710.521 212.957 711.327 212.763 712.026 212.355 715.005 210.612 715.673 205.179 714.136 198.359 720.707 196.304 725 192.991 725 189.505ZM711.2 182.33C710.808 183.718 710.32 185.149 709.769 186.579 709.334 185.719 708.879 184.858 708.38 183.997 707.893 183.137 707.373 182.298 706.854 181.48 708.359 181.706 709.811 181.986 711.2 182.33ZM706.345 193.787C705.519 195.239 704.671 196.616 703.791 197.896 702.212 198.036 700.611 198.111 699 198.111 697.4 198.111 695.799 198.036 694.23 197.907 693.351 196.627 692.492 195.261 691.665 193.819 690.86 192.41 690.128 190.979 689.461 189.538 690.118 188.096 690.86 186.655 691.655 185.245 692.481 183.793 693.329 182.416 694.209 181.136 695.788 180.996 697.389 180.921 699 180.921 700.6 180.921 702.201 180.996 703.77 181.125 704.649 182.405 705.508 183.772 706.335 185.213 707.14 186.622 707.872 188.053 708.539 189.495 707.872 190.936 707.14 192.378 706.345 193.787ZM709.769 192.388C710.341 193.83 710.829 195.271 711.232 196.67 709.843 197.014 708.38 197.305 706.865 197.531 707.384 196.702 707.903 195.852 708.391 194.981 708.879 194.12 709.334 193.249 709.769 192.388ZM699.021 203.867C698.035 202.834 697.05 201.683 696.075 200.424 697.029 200.467 698.004 200.5 698.989 200.5 699.986 200.5 700.971 200.478 701.936 200.424 700.982 201.683 699.996 202.834 699.021 203.867ZM691.135 197.531C689.63 197.305 688.178 197.025 686.79 196.681 687.182 195.293 687.669 193.862 688.221 192.431 688.655 193.292 689.111 194.153 689.609 195.013 690.107 195.874 690.616 196.713 691.135 197.531ZM698.968 175.144C699.954 176.177 700.94 177.328 701.915 178.586 700.961 178.543 699.986 178.511 699 178.511 698.004 178.511 697.018 178.533 696.053 178.586 697.007 177.328 697.993 176.177 698.968 175.144ZM691.125 181.48C690.605 182.309 690.086 183.158 689.598 184.03 689.111 184.89 688.655 185.751 688.221 186.612 687.648 185.17 687.161 183.729 686.758 182.33 688.146 181.997 689.609 181.706 691.125 181.48ZM681.532 194.949C677.78 193.324 675.353 191.194 675.353 189.505 675.353 187.816 677.78 185.676 681.532 184.062 682.444 183.664 683.44 183.309 684.468 182.976 685.073 185.084 685.867 187.279 686.853 189.527 685.878 191.764 685.094 193.948 684.5 196.046 683.451 195.713 682.455 195.347 681.532 194.949ZM687.235 210.321C685.793 209.482 685.168 206.287 685.656 202.178 685.772 201.167 685.963 200.102 686.196 199.015 688.274 199.531 690.542 199.93 692.927 200.188 694.358 202.178 695.841 203.985 697.336 205.566 693.881 208.826 690.637 210.612 688.433 210.612 687.956 210.601 687.553 210.504 687.235 210.321ZM712.376 202.124C712.874 206.233 712.26 209.428 710.829 210.278 710.511 210.472 710.097 210.558 709.61 210.558 707.416 210.558 704.162 208.783 700.706 205.545 702.19 203.964 703.674 202.167 705.084 200.177 707.479 199.919 709.748 199.521 711.825 198.994 712.069 200.08 712.26 201.124 712.376 202.124ZM716.457 194.949C715.545 195.347 714.549 195.702 713.521 196.035 712.917 193.927 712.122 191.732 711.136 189.484 712.111 187.246 712.896 185.062 713.489 182.965 714.539 183.298 715.535 183.664 716.468 184.062 720.22 185.686 722.647 187.816 722.647 189.505 722.636 191.194 720.209 193.335 716.457 194.949Z" fill="#262626" fill-rule="evenodd"/><path d="M704 189.5C704 191.985 701.761 194 699 194 696.239 194 694 191.985 694 189.5 694 187.015 696.239 185 699 185 701.761 185 704 187.015 704 189.5Z" fill="#00B0FF" fill-rule="evenodd"/></g></svg>