<svg width="83" height="87" xmlns="http://www.w3.org/2000/svg" xmlns:xlink="http://www.w3.org/1999/xlink" overflow="hidden"><defs><clipPath id="clip0"><path d="M745 157 828 157 828 244 745 244Z" fill-rule="evenodd" clip-rule="evenodd"/></clipPath></defs><g clip-path="url(#clip0)" transform="translate(-745 -157)"><rect x="746.5" y="159.5" width="81" height="80" stroke="#A6A6A6" stroke-miterlimit="8" fill="none"/><text fill="#262626" font-family="SpoqaHanSans,SpoqaHanSans_MSFontService,sans-serif" font-weight="400" font-size="16" transform="translate(776.352 229)">Go</text><path d="M757.132 185.974C757 185.974 756.967 185.921 757.033 185.842L757.726 185.132C757.792 185.053 757.957 185 758.089 185L769.868 185C770 185 770.033 185.079 769.967 185.158L769.406 185.842C769.34 185.921 769.175 186 769.076 186L757.132 185.974Z" fill="#00B0FF" fill-rule="evenodd"/><path d="M752.138 189C752 189 751.966 188.946 752.034 188.865L752.757 188.135C752.826 188.054 752.997 188 753.135 188L768.819 188C768.957 188 769.026 188.081 768.991 188.162L768.716 188.811C768.682 188.919 768.544 188.973 768.407 188.973L752.138 189Z" fill="#00B0FF" fill-rule="evenodd"/><path d="M760.139 192.947C760 192.947 759.965 192.79 760.035 192.632L760.519 191.316C760.589 191.158 760.727 191 760.866 191L767.792 191C767.931 191 768 191.158 768 191.368L767.931 192.632C767.931 192.842 767.792 193 767.688 193L760.139 192.947Z" fill="#00B0FF" fill-rule="evenodd"/><path d="M795.846 185.283C793.642 185.826 792.138 186.234 789.969 186.778 789.444 186.914 789.409 186.948 788.954 186.438 788.43 185.86 788.045 185.487 787.31 185.147 785.107 184.093 782.973 184.399 780.979 185.656 778.6 187.151 777.376 189.36 777.411 192.112 777.446 194.83 779.37 197.073 782.133 197.446 784.512 197.752 786.506 196.937 788.08 195.204 788.395 194.83 788.675 194.422 789.024 193.947 787.765 193.947 786.191 193.947 782.273 193.947 781.538 193.947 781.364 193.505 781.608 192.927 782.063 191.874 782.903 190.107 783.392 189.224 783.497 189.02 783.742 188.68 784.267 188.68 786.051 188.68 792.627 188.68 797 188.68 796.93 189.598 796.93 190.515 796.79 191.432 796.405 193.879 795.461 196.121 793.922 198.092 791.403 201.32 788.115 203.324 783.952 203.868 780.524 204.31 777.341 203.664 774.542 201.625 771.954 199.723 770.484 197.208 770.1 194.083 769.645 190.379 770.764 187.049 773.073 184.127 775.557 180.968 778.845 178.963 782.868 178.249 786.156 177.672 789.304 178.046 792.138 179.914 793.992 181.104 795.321 182.734 796.195 184.705 796.405 185.011 796.265 185.181 795.846 185.283Z" fill="#262626" fill-rule="evenodd"/><path d="M807.112 204C804.025 203.934 801.209 203.077 798.835 201.098 796.833 199.416 795.578 197.273 795.171 194.733 794.56 191.007 795.612 187.709 797.919 184.774 800.395 181.608 803.38 179.959 807.417 179.267 810.877 178.673 814.134 179.003 817.085 180.948 819.765 182.729 821.427 185.137 821.868 188.303 822.445 192.755 821.122 196.382 817.967 199.482 815.728 201.692 812.981 203.077 809.826 203.703 808.91 203.868 807.994 203.901 807.112 204ZM815.186 190.677C815.152 190.248 815.152 189.918 815.084 189.589 814.473 186.324 811.386 184.477 808.164 185.203 805.009 185.895 802.973 187.841 802.227 190.941 801.616 193.513 802.905 196.118 805.348 197.174 807.214 197.965 809.079 197.866 810.877 196.976 813.557 195.624 815.016 193.513 815.186 190.677Z" fill="#262626" fill-rule="evenodd"/></g></svg>