<svg width="83" height="86" xmlns="http://www.w3.org/2000/svg" xmlns:xlink="http://www.w3.org/1999/xlink" overflow="hidden"><defs><clipPath id="clip0"><path d="M371 158 454 158 454 244 371 244Z" fill-rule="evenodd" clip-rule="evenodd"/></clipPath></defs><g clip-path="url(#clip0)" transform="translate(-371 -158)"><path d="M390.422 195.392C392.508 195.392 394.065 195.011 395.051 194.259 396.026 193.516 396.699 192.227 397.052 190.43 397.381 188.75 397.255 187.576 396.679 186.943 396.09 186.297 394.817 185.969 392.894 185.969L389.56 185.969 387.712 195.392 390.422 195.392ZM379.519 207C379.364 207 379.217 206.932 379.118 206.813 379.02 206.695 378.98 206.539 379.01 206.388L383.908 181.416C383.955 181.174 384.168 181 384.417 181L394.973 181C398.29 181 400.76 181.893 402.312 183.654 403.872 185.424 404.354 187.898 403.744 191.007 403.496 192.274 403.069 193.451 402.475 194.504 401.88 195.559 401.094 196.534 400.139 197.405 398.995 198.466 397.7 199.235 396.294 199.688 394.911 200.134 393.133 200.361 391.012 200.361L386.738 200.361 385.517 206.584C385.47 206.826 385.257 207 385.008 207L379.519 207Z" fill-rule="evenodd"/><path d="M390.49 186.212 393.392 186.212C395.709 186.212 396.514 186.735 396.787 187.047 397.241 187.564 397.327 188.654 397.035 190.2 396.707 191.931 396.1 193.158 395.229 193.847 394.338 194.552 392.889 194.91 390.923 194.91L388.846 194.91 390.49 186.212ZM395.467 180 384.927 180C384.431 180 384.004 180.361 383.91 180.862L379.019 206.732C378.96 207.044 379.04 207.367 379.236 207.613 379.433 207.858 379.726 208 380.036 208L385.517 208C386.013 208 386.44 207.639 386.534 207.138L387.672 201.122 391.513 201.122C393.685 201.122 395.514 200.879 396.948 200.398 398.422 199.906 399.779 199.071 400.98 197.916 401.973 196.977 402.791 195.923 403.411 194.782 404.031 193.641 404.476 192.369 404.734 191.001 405.376 187.61 404.855 184.895 403.186 182.931 401.533 180.986 398.936 180 395.467 180M387.589 195.975 390.923 195.975C393.134 195.975 394.78 195.547 395.861 194.691 396.943 193.834 397.673 192.405 398.052 190.403 398.415 188.48 398.249 187.123 397.556 186.333 396.862 185.543 395.474 185.147 393.392 185.147L389.636 185.147 387.589 195.975M395.467 181.065C398.639 181.065 400.952 181.921 402.406 183.632 403.86 185.343 404.298 187.732 403.717 190.798 403.479 192.061 403.075 193.216 402.506 194.263 401.937 195.31 401.194 196.267 400.275 197.135 399.181 198.188 397.965 198.939 396.627 199.386 395.289 199.834 393.585 200.057 391.513 200.057L386.818 200.057 385.517 206.935 380.036 206.935 384.927 181.065 395.467 181.065" fill="#262626" fill-rule="evenodd"/><path d="M416.279 201C416.121 201 415.97 200.929 415.87 200.806 415.769 200.683 415.728 200.521 415.758 200.365L417.974 188.89C418.185 187.799 418.133 187.016 417.828 186.685 417.641 186.483 417.08 186.143 415.422 186.143L411.407 186.143 408.621 200.568C408.573 200.819 408.355 201 408.101 201L402.53 201C402.372 201 402.222 200.929 402.121 200.806 402.02 200.683 401.98 200.521 402.01 200.365L407.019 174.432C407.067 174.181 407.286 174 407.54 174L413.11 174C413.268 174 413.418 174.071 413.519 174.194 413.62 174.317 413.661 174.479 413.631 174.636L412.422 180.895 416.74 180.895C420.03 180.895 422.261 181.478 423.56 182.679 424.885 183.904 425.298 185.862 424.789 188.5L422.458 200.568C422.41 200.819 422.192 201 421.938 201L416.279 201Z" fill="#00B0FF" fill-rule="evenodd"/><path d="M412.611 174 407.055 174C406.548 174 406.113 174.349 406.016 174.831L401.02 199.777C400.959 200.078 401.041 200.39 401.242 200.626 401.443 200.863 401.742 201 402.058 201L407.614 201C408.121 201 408.556 200.652 408.653 200.169L411.349 186.708 414.917 186.708C416.568 186.708 416.915 187.051 416.929 187.066 417.029 187.17 417.161 187.654 416.943 188.74L414.733 199.777C414.673 200.078 414.754 200.39 414.955 200.626 415.156 200.863 415.456 201 415.772 201L421.416 201C421.922 201 422.358 200.652 422.455 200.169L424.779 188.56C425.325 185.835 424.858 183.791 423.393 182.484 421.994 181.238 419.652 180.632 416.232 180.632L412.566 180.632 413.65 175.223C413.71 174.922 413.628 174.61 413.427 174.374 413.226 174.137 412.927 174 412.611 174M412.611 175.027 411.283 181.659 416.232 181.659C419.346 181.659 421.494 182.187 422.677 183.24 423.859 184.295 424.213 186.003 423.741 188.365L421.416 199.973 415.772 199.973 417.982 188.936C418.234 187.68 418.141 186.824 417.704 186.367 417.268 185.91 416.338 185.681 414.917 185.681L410.476 185.681 407.614 199.973 402.058 199.973 407.055 175.027 412.611 175.027" fill="#262626" fill-rule="evenodd"/><path d="M432.422 195.946C434.508 195.946 436.065 195.55 437.051 194.769 438.026 193.997 438.699 192.659 439.052 190.792 439.381 189.048 439.256 187.829 438.679 187.172 438.09 186.5 436.817 186.16 434.894 186.16L431.56 186.16 429.712 195.946 432.422 195.946ZM421.519 208C421.364 208 421.217 207.929 421.119 207.806 421.02 207.683 420.98 207.521 421.01 207.365L425.908 181.432C425.955 181.181 426.168 181 426.417 181L436.973 181C440.291 181 442.76 181.927 444.312 183.756 445.873 185.594 446.354 188.163 445.744 191.392 445.496 192.708 445.069 193.93 444.475 195.023 443.88 196.119 443.094 197.132 442.139 198.036 440.995 199.138 439.7 199.936 438.294 200.406 436.91 200.87 435.133 201.105 433.012 201.105L428.738 201.105 427.518 207.568C427.47 207.819 427.257 208 427.008 208L421.519 208Z" fill-rule="evenodd"/><path d="M431.932 186.99 434.945 186.99C437.352 186.99 438.187 187.495 438.471 187.795 438.943 188.294 439.032 189.345 438.729 190.836 438.388 192.505 437.757 193.688 436.854 194.352 435.928 195.033 434.424 195.377 432.382 195.377L430.224 195.377 431.932 186.99ZM437.101 181 426.154 181C425.64 181 425.197 181.349 425.099 181.831L420.02 206.777C419.958 207.078 420.041 207.39 420.245 207.626 420.45 207.863 420.754 208 421.076 208L426.768 208C427.283 208 427.726 207.652 427.824 207.169L429.005 201.368 432.994 201.368C435.25 201.368 437.149 201.133 438.638 200.67 440.169 200.195 441.578 199.39 442.825 198.276 443.857 197.371 444.706 196.354 445.349 195.254 445.993 194.154 446.456 192.928 446.724 191.608 447.39 188.338 446.849 185.72 445.116 183.826 443.4 181.951 440.703 181 437.101 181M428.92 196.404 432.382 196.404C434.677 196.404 436.387 195.992 437.51 195.166 438.633 194.34 439.391 192.962 439.785 191.031 440.162 189.177 439.99 187.869 439.27 187.107 438.549 186.345 437.108 185.964 434.945 185.964L431.045 185.964 428.92 196.404M437.101 182.027C440.394 182.027 442.796 182.852 444.306 184.502 445.816 186.152 446.271 188.455 445.668 191.413 445.42 192.631 445.001 193.744 444.41 194.753 443.819 195.763 443.047 196.686 442.094 197.523 440.957 198.539 439.694 199.262 438.305 199.694 436.915 200.126 435.146 200.341 432.994 200.341L428.118 200.341 426.768 206.973 421.076 206.973 426.154 182.027 437.101 182.027" fill="#262626" fill-rule="evenodd"/><rect x="372.5" y="159.5" width="81" height="81" stroke="#A6A6A6" stroke-miterlimit="8" fill="none"/><text fill="#262626" font-family="SpoqaHanSans,SpoqaHanSans_MSFontService,sans-serif" font-weight="400" font-size="16" transform="translate(396.604 230)">PHP</text></g></svg>